<?xml version="1.0" standalone="no"?>
<!DOCTYPE svg PUBLIC "-//W3C//DTD SVG 20010904//EN"
 "http://www.w3.org/TR/2001/REC-SVG-20010904/DTD/svg10.dtd">
<svg version="1.0" xmlns="http://www.w3.org/2000/svg"
 width="500.000000pt" height="500.000000pt" viewBox="0 0 500.000000 500.000000"
 preserveAspectRatio="xMidYMid meet">

<g transform="translate(0.000000,500.000000) scale(0.100000,-0.100000)"
fill="#000000" stroke="none">
<path d="M2125 4391 c-53 -24 -76 -51 -82 -99 -4 -33 -1 -44 23 -71 25 -28 39
-33 104 -42 123 -17 120 -16 120 -49 0 -26 -5 -31 -42 -40 -24 -7 -65 -9 -98
-5 -56 7 -58 6 -64 -21 -11 -43 41 -62 137 -49 109 14 168 71 153 148 -9 50
-49 74 -135 82 -82 8 -111 19 -111 43 0 38 35 56 109 54 67 -1 69 0 74 26 3
15 0 30 -6 34 -24 15 -141 8 -182 -11z"/>
<path d="M2895 4403 c-29 -7 -46 -24 -61 -60 -9 -19 -22 -33 -36 -35 -14 -2
-24 -13 -29 -30 -6 -22 -3 -27 15 -32 l23 -6 -22 -107 c-13 -60 -22 -109 -20
-111 1 -1 19 -3 40 -5 l38 -2 22 100 21 100 35 -1 c37 0 49 10 49 44 0 18 -6
22 -29 22 -36 0 -46 13 -31 40 9 17 19 21 47 18 27 -2 39 2 50 19 13 19 13 22
-4 31 -24 13 -83 21 -108 15z"/>
<path d="M2498 4332 c-40 -17 -85 -72 -92 -111 -9 -60 2 -95 46 -137 38 -38
41 -39 111 -39 65 0 76 3 109 30 68 54 70 158 4 224 -32 32 -41 35 -98 38 -35
1 -71 -1 -80 -5z m101 -67 c32 -16 41 -33 41 -76 0 -42 -14 -64 -49 -78 -24
-10 -34 -10 -59 3 -33 17 -42 33 -42 80 0 35 14 57 45 74 26 15 31 15 64 -3z"/>
<path d="M3054 4284 c-12 -29 -17 -33 -33 -25 -15 8 -20 5 -30 -16 -11 -24
-10 -29 9 -43 l21 -16 -27 -75 c-18 -49 -25 -83 -21 -101 9 -35 58 -69 107
-75 39 -6 40 -5 40 25 0 24 -5 31 -21 34 -39 6 -45 31 -24 95 24 74 27 78 65
65 28 -10 32 -9 40 14 13 34 15 31 -25 44 l-35 11 14 34 14 33 -40 15 -39 16
-15 -35z"/>
<path d="M3255 4178 c-3 -7 -18 -76 -35 -152 -28 -131 -29 -140 -12 -152 34
-27 62 -28 90 -2 15 13 46 38 70 56 39 31 42 31 42 12 0 -12 -7 -53 -16 -91
-15 -66 -15 -72 1 -89 33 -36 50 -33 117 19 35 28 89 70 121 95 l58 44 -31 22
-30 21 -53 -44 c-67 -56 -117 -91 -117 -80 0 4 11 52 23 105 l24 97 -32 17
-32 17 -78 -63 c-44 -34 -81 -58 -83 -52 -2 6 6 49 17 97 12 48 21 90 21 94 0
4 -14 15 -30 24 -24 14 -31 15 -35 5z"/>
<path d="M1506 4039 c-14 -17 -26 -38 -27 -47 0 -16 -1 -16 -12 0 -10 15 -13
15 -39 -3 -15 -11 -28 -26 -28 -33 0 -6 34 -59 75 -116 41 -58 75 -108 75
-112 0 -14 14 -8 44 17 l30 24 -47 68 c-56 81 -61 120 -21 152 l26 21 -25 30
-25 30 -26 -31z"/>
<path d="M1834 3985 c-15 -23 -15 -27 0 -50 10 -15 26 -25 41 -25 15 0 31 10
41 25 15 23 15 27 0 50 -10 15 -26 25 -41 25 -15 0 -31 -10 -41 -25z"/>
<path d="M1267 3846 c-59 -22 -106 -88 -107 -151 0 -67 46 -124 119 -145 60
-17 148 28 182 92 29 56 26 78 -11 78 -23 0 -31 -5 -36 -25 -8 -32 -59 -75
-87 -75 -52 1 -47 16 33 95 l80 79 -22 23 c-19 20 -75 44 -103 43 -5 -1 -27
-7 -48 -14z m78 -66 c8 -13 -91 -114 -104 -105 -20 12 -12 65 14 90 25 25 78
34 90 15z"/>
<path d="M3702 3815 c-10 -21 -9 -26 11 -36 43 -22 77 -62 77 -90 0 -43 -20
-46 -51 -9 -75 89 -162 93 -192 7 -15 -42 58 -137 105 -137 16 0 18 -3 9 -13
-8 -10 -4 -20 17 -39 l27 -26 72 66 c39 37 76 77 82 89 27 54 1 124 -69 179
-51 40 -73 43 -88 9z m0 -163 c38 -35 33 -62 -11 -62 -33 0 -71 33 -71 60 0
40 38 40 82 2z"/>
<path d="M1006 3557 c-31 -26 -39 -40 -43 -80 -5 -38 -9 -46 -22 -42 -11 3
-22 -6 -34 -27 -18 -32 -18 -33 1 -48 11 -8 33 -22 48 -31 16 -9 83 -51 149
-94 112 -72 120 -76 133 -58 35 47 35 50 -23 85 -30 18 -55 35 -55 38 0 3 13
12 29 22 44 24 66 65 66 119 0 84 -70 149 -160 149 -44 0 -57 -5 -89 -33z
m145 -76 c34 -35 37 -68 8 -105 -36 -45 -105 -32 -135 25 -13 26 -13 36 -3 60
23 57 83 66 130 20z"/>
<path d="M3853 3507 c-129 -84 -127 -82 -89 -130 13 -17 18 -16 85 27 81 52
111 57 147 21 25 -25 26 -25 55 -8 16 10 29 21 29 24 0 11 -48 47 -72 55 -19
6 -19 7 -5 16 18 9 14 24 -15 59 -12 15 -25 8 -135 -64z"/>
<path d="M3939 3310 c-52 -42 -67 -101 -43 -172 18 -54 61 -108 87 -108 12 0
43 48 35 55 -2 1 -13 7 -25 14 -29 15 -47 79 -33 115 5 14 13 26 18 26 9 0 72
-130 86 -177 9 -30 21 -29 64 3 62 48 77 117 41 190 -27 58 -72 84 -140 84
-46 0 -60 -5 -90 -30z m161 -65 c27 -29 31 -78 7 -102 -14 -14 -17 -11 -40 33
-40 80 -42 94 -14 94 13 0 34 -11 47 -25z"/>
<path d="M875 3246 c-69 -30 -103 -101 -92 -194 6 -55 43 -94 106 -113 94 -28
191 56 191 165 0 66 -27 111 -83 136 -49 23 -80 24 -122 6z m109 -97 c52 -41
23 -129 -44 -129 -67 0 -111 49 -91 102 19 50 88 64 135 27z"/>
<path d="M606 2915 c-15 -54 -9 -62 52 -72 31 -6 119 -23 194 -38 76 -16 140
-27 142 -24 2 2 7 20 11 40 l7 35 -109 22 c-308 62 -291 60 -297 37z"/>
<path d="M4117 2856 c-46 -17 -64 -32 -83 -67 -28 -56 -12 -173 29 -208 15
-12 19 -10 36 10 16 20 17 27 6 39 -30 35 -30 104 2 135 25 25 30 17 37 -52
15 -151 16 -153 46 -153 61 0 130 77 130 145 0 54 -40 117 -90 143 -51 25 -61
26 -113 8z m109 -89 c33 -28 37 -76 9 -107 -32 -35 -35 -29 -50 83 -7 54 1 58
41 24z"/>
<path d="M755 2730 c-53 -26 -78 -69 -78 -134 -2 -119 118 -193 222 -138 63
34 95 134 69 213 -17 51 -27 56 -59 30 -19 -16 -22 -22 -11 -32 30 -31 4 -139
-34 -139 -11 0 -14 21 -14 110 l0 110 -27 0 c-16 0 -46 -9 -68 -20z m47 -130
c-4 -73 -12 -83 -44 -53 -24 22 -24 77 2 103 37 37 45 26 42 -50z"/>
<path d="M4036 2489 c-11 -56 -11 -56 80 -64 72 -6 91 -11 110 -31 29 -29 31
-67 4 -94 -21 -21 -60 -22 -176 -4 -34 5 -44 -7 -44 -51 0 -28 9 -31 121 -40
65 -5 95 -3 121 8 58 24 85 109 54 169 -13 24 -12 27 5 31 25 7 28 77 4 77
-22 0 -203 19 -241 25 -29 5 -32 3 -38 -26z"/>
<path d="M678 2365 c4 -33 8 -36 56 -50 28 -8 77 -20 110 -27 l59 -13 -49 -31
c-27 -17 -70 -43 -96 -58 -45 -26 -46 -28 -41 -64 3 -20 7 -39 9 -41 2 -2 27
11 56 29 29 18 67 40 83 50 17 9 53 31 81 49 51 31 51 31 44 71 -4 23 -9 43
-12 45 -5 5 -276 75 -292 75 -8 0 -11 -12 -8 -35z"/>
<path d="M3896 2167 c-37 -49 -56 -100 -56 -154 0 -93 30 -117 217 -178 62
-20 116 -36 120 -36 4 0 13 15 19 35 11 29 10 35 -3 40 -13 5 -11 11 11 31 31
29 46 64 46 111 0 79 -59 134 -143 134 -84 0 -137 -56 -137 -145 0 -49 -15
-59 -44 -29 -30 29 -23 86 17 141 29 42 30 43 12 63 -24 27 -30 26 -59 -13z
m263 -123 c25 -31 26 -55 6 -93 -37 -72 -135 -45 -135 36 0 76 85 113 129 57z"/>
<path d="M963 2070 c-6 -17 -7 -30 -2 -30 15 0 49 -63 49 -91 0 -15 -8 -37
-18 -49 -18 -22 -18 -21 -57 81 -21 57 -40 106 -41 108 -2 2 -17 -2 -33 -8
-96 -40 -115 -174 -36 -251 61 -59 156 -58 212 3 39 43 50 93 33 153 -12 43
-66 114 -86 114 -6 0 -15 -13 -21 -30z m-78 -87 c4 -10 15 -42 25 -70 l19 -53
-21 0 c-51 0 -85 70 -58 121 13 24 26 24 35 2z"/>
<path d="M3855 1810 c-8 -16 -15 -33 -15 -38 0 -5 58 -39 128 -75 l128 -66 19
35 c10 19 16 36 14 38 -6 5 -252 136 -255 136 -2 0 -10 -13 -19 -30z"/>
<path d="M963 1717 c-89 -57 -165 -106 -169 -109 -7 -8 27 -68 39 -68 4 0 31
16 60 35 l52 35 6 -32 c14 -84 63 -128 141 -128 84 0 158 70 158 148 0 46 -36
108 -72 123 -21 9 -26 15 -18 24 7 9 5 22 -7 44 -10 17 -20 31 -23 31 -3 0
-78 -46 -167 -103z m184 -49 c52 -48 12 -138 -61 -138 -75 0 -103 85 -45 134
37 32 75 33 106 4z"/>
<path d="M3787 1681 c-9 -16 -17 -31 -17 -34 0 -3 30 -27 66 -53 74 -55 91
-83 73 -126 -24 -57 -77 -47 -175 34 l-49 40 -27 -33 -27 -32 67 -53 c88 -70
126 -88 170 -81 55 9 102 65 102 121 0 19 4 23 19 19 20 -5 56 36 49 56 -4 12
-214 171 -226 171 -4 0 -15 -13 -25 -29z"/>
<path d="M4160 1649 c-27 -49 21 -99 61 -63 23 21 25 69 3 78 -30 11 -53 6
-64 -15z"/>
<path d="M3528 1380 c-67 -36 -127 -131 -91 -144 31 -12 49 -5 60 24 11 29 65
70 93 70 8 0 22 -5 30 -10 12 -8 5 -18 -40 -57 -30 -27 -68 -60 -85 -75 l-30
-27 31 -32 c84 -84 237 -21 251 105 4 34 0 54 -18 86 -43 77 -123 101 -201 60z
m150 -141 c5 -39 -33 -79 -73 -79 -49 0 -52 18 -10 53 21 17 43 36 49 43 16
19 31 11 34 -17z"/>
<path d="M1365 1381 c-11 -5 -34 -22 -52 -38 -82 -77 -53 -215 53 -246 l44
-13 -28 -30 c-15 -16 -34 -41 -43 -54 -15 -23 -14 -25 14 -49 l29 -25 27 31
c88 104 117 140 173 209 l61 77 -29 23 c-18 15 -32 20 -38 14 -6 -6 -17 4 -31
27 -38 69 -115 100 -180 74z m119 -96 c33 -31 33 -65 0 -104 -20 -25 -34 -31
-63 -31 -81 0 -104 88 -37 142 30 25 69 22 100 -7z"/>
<path d="M3234 1175 c-44 -22 -84 -66 -84 -93 0 -5 12 -13 26 -16 20 -5 30 -2
41 14 30 43 108 65 132 36 9 -11 -6 -24 -84 -67 -52 -30 -95 -58 -95 -63 0 -4
18 -26 40 -48 39 -40 41 -40 103 -36 65 4 96 20 132 66 26 36 30 109 8 152
-41 79 -127 101 -219 55z m166 -140 c0 -57 -79 -95 -125 -61 -17 12 -15 15 26
38 100 58 99 57 99 23z"/>
<path d="M1672 1182 c-9 -7 -10 -15 -3 -35 8 -20 17 -27 38 -27 39 0 91 -34
99 -65 3 -14 4 -29 0 -32 -3 -3 -48 16 -101 42 -109 55 -115 54 -123 -24 -6
-67 12 -107 62 -139 109 -69 241 -3 241 121 0 41 -6 59 -28 88 -42 55 -146 95
-185 71z m96 -205 c19 -15 -5 -37 -42 -37 -42 0 -76 32 -76 71 l0 29 53 -26
c28 -15 58 -31 65 -37z"/>
<path d="M3021 1079 c-17 -7 -21 -14 -16 -27 4 -9 17 -47 28 -83 25 -81 18
-116 -23 -131 -33 -11 -35 -16 -18 -53 15 -33 30 -32 67 6 24 24 32 27 37 16
4 -12 11 -13 35 -5 39 13 40 17 24 69 -68 212 -79 231 -134 208z"/>
<path d="M2026 1014 c-37 -56 -176 -317 -171 -322 2 -3 21 -5 41 -6 33 -1 39
3 58 39 12 22 41 76 65 119 52 93 53 93 71 -74 7 -63 16 -118 19 -122 3 -3 22
-9 42 -13 l36 -7 44 79 c24 43 49 89 55 103 7 14 19 34 27 44 14 19 15 19 21
-10 3 -16 10 -76 16 -134 6 -58 14 -108 18 -111 4 -4 24 -10 45 -13 27 -5 37
-3 37 6 0 7 -12 97 -27 200 l-26 186 -30 6 c-61 12 -63 11 -128 -109 -34 -64
-66 -112 -70 -108 -4 5 -12 62 -19 128 -6 66 -15 124 -20 128 -4 5 -25 11 -47
14 -35 5 -41 2 -57 -23z"/>
<path d="M2673 993 c-19 -7 -17 -80 3 -87 27 -10 52 -7 68 10 44 43 -11 102
-71 77z"/>
</g>
</svg>
